<?xml version="1.0" encoding="UTF-8"?>
<svg version="1.1" xmlns="http://www.w3.org/2000/svg" width="1018" height="1018">
<path d="M0 0 C1.43257643 0.00222204 2.86515293 0.00439857 4.29772949 0.00653076 C24.52281503 0.04824619 44.51543856 0.32659758 64.5625 3.3125 C65.98518448 3.51858454 67.40787349 3.72463777 68.83056641 3.93066406 C111.66361564 10.21998317 153.54502887 20.62838176 193.5625 37.3125 C194.58811035 37.73998535 195.6137207 38.1674707 196.67041016 38.60791016 C244.20559603 58.61999356 288.0027126 85.21801888 327.5625 118.3125 C328.15869141 118.80959473 328.75488281 119.30668945 329.36914062 119.81884766 C342.16176372 130.52050452 354.24609878 141.92201065 366.0625 153.6875 C366.8040332 154.42436035 367.54556641 155.1612207 368.30957031 155.92041016 C372.9320081 160.5564372 377.29575624 165.34945618 381.5625 170.3125 C382.58416455 171.46901656 383.60755479 172.62401135 384.6328125 173.77734375 C392.11281273 182.25314099 399.12006697 191.00264098 405.88134766 200.06054688 C407.02345583 201.59043445 408.16909373 203.11769201 409.31787109 204.64257812 C417.55235334 215.57390392 425.38253835 226.65875503 432.5625 238.3125 C433.06072266 239.11961426 433.55894531 239.92672852 434.07226562 240.75830078 C443.34176067 255.87750518 451.60748373 271.46794084 459.5625 287.3125 C460.2119458 288.59737305 460.2119458 288.59737305 460.87451172 289.90820312 C486.41510361 340.75767844 501.44320186 397.86416642 507.5625 454.3125 C507.64863556 455.08304718 507.73477112 455.85359436 507.82351685 456.64749146 C509.71567515 474.00122644 509.92279611 491.31182769 509.875 508.75 C509.87277796 510.18257643 509.87060143 511.61515293 509.86846924 513.04772949 C509.82675381 533.27281503 509.54840242 553.26543856 506.5625 573.3125 C506.35641546 574.73518448 506.15036223 576.15787349 505.94433594 577.58056641 C499.65501683 620.41361564 489.24661824 662.29502887 472.5625 702.3125 C471.92127197 703.85091553 471.92127197 703.85091553 471.26708984 705.42041016 C451.25500644 752.95559603 424.65698112 796.7527126 391.5625 836.3125 C390.81685791 837.20678711 390.81685791 837.20678711 390.05615234 838.11914062 C379.35449548 850.91176372 367.95298935 862.99609878 356.1875 874.8125 C355.45063965 875.5540332 354.7137793 876.29556641 353.95458984 877.05957031 C349.3185628 881.6820081 344.52554382 886.04575624 339.5625 890.3125 C338.40598344 891.33416455 337.25098865 892.35755479 336.09765625 893.3828125 C327.62185901 900.86281273 318.87235902 907.87006697 309.81445312 914.63134766 C308.28456555 915.77345583 306.75730799 916.91909373 305.23242188 918.06787109 C294.30109608 926.30235334 283.21624497 934.13253835 271.5625 941.3125 C270.75538574 941.81072266 269.94827148 942.30894531 269.11669922 942.82226562 C253.99749482 952.09176067 238.40705916 960.35748373 222.5625 968.3125 C221.27762695 968.9619458 221.27762695 968.9619458 219.96679688 969.62451172 C169.11732156 995.16510361 112.01083358 1010.19320186 55.5625 1016.3125 C54.79195282 1016.39863556 54.02140564 1016.48477112 53.22750854 1016.57351685 C35.87377356 1018.46567515 18.56317231 1018.67279611 1.125 1018.625 C-0.30757643 1018.62277796 -1.74015293 1018.62060143 -3.17272949 1018.61846924 C-23.39781503 1018.57675381 -43.39043856 1018.29840242 -63.4375 1015.3125 C-64.86018448 1015.10641546 -66.28287349 1014.90036223 -67.70556641 1014.69433594 C-110.53861564 1008.40501683 -152.42002887 997.99661824 -192.4375 981.3125 C-193.46311035 980.88501465 -194.4887207 980.4575293 -195.54541016 980.01708984 C-243.08059603 960.00500644 -286.8777126 933.40698112 -326.4375 900.3125 C-327.33178711 899.56685791 -327.33178711 899.56685791 -328.24414062 898.80615234 C-341.03676372 888.10449548 -353.12109878 876.70298935 -364.9375 864.9375 C-365.6790332 864.20063965 -366.42056641 863.4637793 -367.18457031 862.70458984 C-371.8070081 858.0685628 -376.17075624 853.27554382 -380.4375 848.3125 C-381.45916455 847.15598344 -382.48255479 846.00098865 -383.5078125 844.84765625 C-390.98781273 836.37185901 -397.99506697 827.62235902 -404.75634766 818.56445312 C-405.89845583 817.03456555 -407.04409373 815.50730799 -408.19287109 813.98242188 C-416.42735334 803.05109608 -424.25753835 791.96624497 -431.4375 780.3125 C-432.18483398 779.10182861 -432.18483398 779.10182861 -432.94726562 777.86669922 C-442.21676067 762.74749482 -450.48248373 747.15705916 -458.4375 731.3125 C-459.0869458 730.02762695 -459.0869458 730.02762695 -459.74951172 728.71679688 C-485.29010361 677.86732156 -500.31820186 620.76083358 -506.4375 564.3125 C-506.52363556 563.54195282 -506.60977112 562.77140564 -506.69851685 561.97750854 C-508.59067515 544.62377356 -508.79779611 527.31317231 -508.75 509.875 C-508.74777796 508.44242357 -508.74560143 507.00984707 -508.74346924 505.57727051 C-508.70175381 485.35218497 -508.42340242 465.35956144 -505.4375 445.3125 C-505.23141546 443.88981552 -505.02536223 442.46712651 -504.81933594 441.04443359 C-498.53001683 398.21138436 -488.12161824 356.32997113 -471.4375 316.3125 C-471.01001465 315.28688965 -470.5825293 314.2612793 -470.14208984 313.20458984 C-450.13000644 265.66940397 -423.53198112 221.8722874 -390.4375 182.3125 C-389.94040527 181.71630859 -389.44331055 181.12011719 -388.93115234 180.50585938 C-378.22949548 167.71323628 -366.82798935 155.62890122 -355.0625 143.8125 C-354.32563965 143.0709668 -353.5887793 142.32943359 -352.82958984 141.56542969 C-348.1935628 136.9429919 -343.40054382 132.57924376 -338.4375 128.3125 C-337.28098344 127.29083545 -336.12598865 126.26744521 -334.97265625 125.2421875 C-326.49685901 117.76218727 -317.74735902 110.75493303 -308.68945312 103.99365234 C-307.15956555 102.85154417 -305.63230799 101.70590627 -304.10742188 100.55712891 C-293.17609608 92.32264666 -282.09124497 84.49246165 -270.4375 77.3125 C-269.63038574 76.81427734 -268.82327148 76.31605469 -267.99169922 75.80273438 C-252.87249482 66.53323933 -237.28205916 58.26751627 -221.4375 50.3125 C-220.15262695 49.6630542 -220.15262695 49.6630542 -218.84179688 49.00048828 C-167.99232156 23.45989639 -110.88583358 8.43179814 -54.4375 2.3125 C-53.66695282 2.22636444 -52.89640564 2.14022888 -52.10250854 2.05148315 C-34.74877356 0.15932485 -17.43817231 -0.04779611 0 0 Z " fill="#000000" transform="translate(508.4375,-0.3125)"/>
<path d="M0 0 C4.42210503 3.36922288 7.21471858 7.24742284 8.04794312 12.83752441 C8.16920306 16.17933182 8.13479164 19.48537384 8.04296875 22.828125 C8.03115067 24.0535199 8.01933258 25.27891479 8.00715637 26.54144287 C7.96610136 30.44503765 7.89133143 34.3470006 7.8125 38.25 C7.74947007 42.13853597 7.69389361 46.02691081 7.64997864 49.91571045 C7.62114149 52.32901489 7.58076555 54.74222022 7.5266571 57.15509033 C6.97318864 69.69216837 6.97318864 69.69216837 11.13998413 81.05058289 C12.19735185 82.11555927 13.25569429 83.17956867 14.31494141 84.24267578 C16.87851195 87.68147205 16.38992619 91.80913532 16.3125 95.9375 C16.27706419 102.65511755 16.5606674 107.91806755 19.625 114 C23.74336869 117.40303653 28.45948891 117.9679656 33.58984375 118.9609375 C41.95922297 121.82613039 45.25054014 128.78234892 49.4375 136.0625 C50.7580939 138.31179749 52.07975008 140.56047155 53.40234375 142.80859375 C53.74340149 143.3917334 54.08445923 143.97487305 54.43585205 144.57568359 C58.01950946 150.69989552 61.70599225 156.76005995 65.4005127 162.81781006 C66.49509377 164.6169358 67.58388835 166.41943599 68.67089844 168.22314453 C71.60340038 173.0833175 74.53787365 177.92856572 77.69921875 182.64453125 C78.13057129 183.30437012 78.56192383 183.96420898 79.00634766 184.64404297 C80.06729266 186.25497765 81.158749 187.84571925 82.25390625 189.43359375 C85.86406524 198.82412126 83.38143371 210.03889348 82.08081055 219.78588867 C81.81064814 221.82648756 81.55994708 223.86888049 81.31054688 225.91210938 C79.31635376 241.61410333 79.31635376 241.61410333 74.6875 247.4375 C70.64602343 249.49947784 67.05760331 249.5314359 62.5625 249.62890625 C59.04044947 250.07384614 57.46622977 250.86276292 54.625 253 C53.16832996 255.37982944 51.97880725 257.59272271 50.82421875 260.109375 C50.4857341 260.81648621 50.14724945 261.52359741 49.79850769 262.25213623 C49.08550122 263.74619547 48.37899667 265.24337299 47.6786499 266.7434082 C46.66563411 268.91297432 45.63613289 271.07376905 44.60009766 273.23242188 C42.52619687 277.56240294 40.4806752 281.90545679 38.4375 286.25 C37.69256427 287.8297998 36.94752674 289.4095516 36.20239258 290.98925781 C32.2344846 299.40906302 28.30120487 307.84392371 24.40551758 316.29736328 C21.83229218 321.87445961 19.23586064 327.44043186 16.625 333 C16.09503418 334.13083008 15.56506836 335.26166016 15.01904297 336.42675781 C13.44901843 339.75268718 11.85398708 343.06533797 10.25 346.375 C9.7861792 347.36209961 9.3223584 348.34919922 8.84448242 349.36621094 C5.4830287 356.20310665 1.78389021 360.87219571 -5.0625 364.375 C-14.9456093 366.2397376 -21.86229593 365.08711428 -30.5 360.25 C-33.81547771 358.80848795 -34.98705798 358.9575563 -38.375 360 C-40.04166667 360.33333333 -41.70833333 360.66666667 -43.375 361 C-41.82271497 357.89542995 -39.24216525 357.61906575 -36.0625 356.375 C-8.53227113 345.07215319 11.20026503 321.33022237 23.0859375 294.73046875 C28.33460853 281.83146207 31.81261307 268.0489942 31.72265625 254.1015625 C31.7212413 253.26660248 31.71982635 252.43164246 31.71836853 251.57138062 C31.71280174 248.92254958 31.70025547 246.2738052 31.6875 243.625 C31.6824807 241.82161581 31.67791855 240.01823029 31.67382812 238.21484375 C31.6628432 233.80986279 31.64560163 229.40494606 31.625 225 C30.965 225 30.305 225 29.625 225 C29.36976563 223.76636719 29.36976563 223.76636719 29.109375 222.5078125 C27.54986276 215.32410186 25.55286768 208.7329103 22.625 202 C21.33899077 199.02470338 20.625 197.2695384 20.625 194 C21.52035965 193.9845388 21.52035965 193.9845388 22.43380737 193.96876526 C28.63030229 193.86082612 34.82664807 193.74621812 41.02294922 193.62768555 C43.33737069 193.58429624 45.651825 193.54262416 47.96630859 193.50268555 C51.28753573 193.44507968 54.60859692 193.38135749 57.9296875 193.31640625 C58.96930634 193.29969376 60.00892517 193.28298126 61.08004761 193.26576233 C62.04089264 193.24581711 63.00173767 193.22587189 63.99169922 193.20532227 C64.83997284 193.18977798 65.68824646 193.1742337 66.56222534 193.15821838 C68.68818305 193.12570042 68.68818305 193.12570042 70.625 192 C70.03377753 187.97195584 68.75429037 185.10096597 66.703125 181.59765625 C66.09581543 180.55230713 65.48850586 179.50695801 64.86279297 178.42993164 C64.20682129 177.3186792 63.55084961 176.20742676 62.875 175.0625 C62.19764429 173.90707465 61.5207286 172.75139123 60.84423828 171.59545898 C59.80564322 169.82224902 58.76592337 168.04974572 57.72280884 166.27919006 C55.42069216 162.37090103 53.1576484 158.44231823 50.9140625 154.5 C49.77630156 152.52068392 48.63829332 150.54150996 47.5 148.5625 C46.98083008 147.64025635 46.46166016 146.7180127 45.92675781 145.76782227 C45.43272461 144.91760498 44.93869141 144.0673877 44.4296875 143.19140625 C43.79522705 142.08067749 43.79522705 142.08067749 43.14794922 140.94750977 C40.6304467 137.72818986 37.88654316 136.17425464 33.83578491 135.61473083 C32.82053741 135.60966019 31.80528992 135.60458954 30.75927734 135.59936523 C29.01993423 135.57935707 29.01993423 135.57935707 27.24545288 135.5589447 C25.99656281 135.55882889 24.74767273 135.55871307 23.4609375 135.55859375 C21.47022625 135.53839666 19.47951505 135.51818925 17.48880959 135.49742985 C14.69652642 135.47178112 11.90424689 135.45925495 9.11187744 135.44702148 C2.95723061 135.41927301 -3.19718884 135.37257934 -9.3515625 135.30859375 C-10.65957825 135.29516937 -11.96759399 135.281745 -13.31524658 135.26791382 C-23.42775701 135.11712067 -33.35984756 134.38463126 -43.375 133 C-43.045 133.99 -42.715 134.98 -42.375 136 C-47.06523454 135.43393721 -51.72000026 134.81462495 -56.375 134 C-56.375 133.34 -56.375 132.68 -56.375 132 C-56.98085938 131.93941406 -57.58671875 131.87882813 -58.2109375 131.81640625 C-59.04882812 131.73261719 -59.88671875 131.64882812 -60.75 131.5625 C-61.56210937 131.48128906 -62.37421875 131.40007812 -63.2109375 131.31640625 C-64.97852038 131.13964796 -66.74558785 130.9563042 -68.50976562 130.74829102 C-75.38938461 129.97579143 -82.20538936 129.80844752 -89.125 129.8125 C-90.26936523 129.81185547 -91.41373047 129.81121094 -92.59277344 129.81054688 C-99.76086904 129.85533475 -106.58498111 130.24642135 -113.640625 131.5625 C-116.59210557 132.03473689 -119.39099151 132.07062742 -122.375 132 C-122.375 132.66 -122.375 133.32 -122.375 134 C-122.99246094 134.17015625 -123.60992188 134.3403125 -124.24609375 134.515625 C-133.14183458 137.06113379 -141.11358948 140.78906371 -149.30859375 145.046875 C-151.375 146 -151.375 146 -153.375 146 C-153.375 146.66 -153.375 147.32 -153.375 148 C-155.10546875 149.0859375 -155.10546875 149.0859375 -157.5625 150.375 C-177.57494654 161.99695904 -195.70140917 184.74466256 -202.375 206.9375 C-202.72613136 208.28716116 -203.06772837 209.6396829 -203.375 211 C-204.035 211 -204.695 211 -205.375 211 C-205.42398437 211.6290625 -205.47296875 212.258125 -205.5234375 212.90625 C-205.88021202 216.99070318 -206.25747479 220.92196307 -207.375 224.875 C-214.68252845 252.41456616 -207.77433175 284.40527908 -193.9375 308.57421875 C-191.38135626 312.54263191 -188.59391396 316.35113607 -185.76464844 320.12890625 C-181.30918978 326.16467633 -181.30918978 326.16467633 -181.375 329 C-182.30302111 330.68995343 -183.24231981 332.37546211 -184.25732422 334.01464844 C-186.22605855 337.51175364 -187.28136022 341.29816572 -188.4375 345.125 C-188.69426514 345.9595874 -188.95103027 346.7941748 -189.21557617 347.65405273 C-193.81610511 362.83769746 -195.56711664 376.90754953 -195.6875 392.75 C-195.73100586 394.68166016 -195.73100586 394.68166016 -195.77539062 396.65234375 C-195.97067572 405.68489091 -195.97067572 405.68489091 -191.375 413 C-185.98169481 418.38024634 -179.1883007 418.83433953 -171.9609375 419.4453125 C-168.04019021 420.05178975 -164.26488486 421.11011514 -161.375 424 C-161.02549754 429.24253687 -160.80446423 432.83437493 -164.375 437 C-169.62887689 440.37983046 -174.10128152 440.34915678 -180.125 440.375 C-189.69379342 440.6501742 -196.81523069 441.99566326 -203.6875 449.125 C-209.34263076 456.69090872 -212.20214858 465.85749497 -214.625 474.875 C-214.91093018 475.91438721 -215.19686035 476.95377441 -215.49145508 478.0246582 C-218.62086384 489.58342844 -221.41165432 501.2303956 -224.17871094 512.88037109 C-226.0598011 520.77726921 -228.06620386 528.60111091 -230.34106445 536.39624023 C-232.39158004 543.54326751 -234.24147193 550.74502808 -236.125 557.9375 C-236.56396262 559.60833902 -237.00301017 561.27915574 -237.44213867 562.94995117 C-239.52553459 570.88572415 -241.59351191 578.8252117 -243.62890625 586.7734375 C-243.80531647 587.46137894 -243.98172668 588.14932037 -244.16348267 588.85810852 C-244.97948677 592.04163862 -245.79214775 595.22590348 -246.59863281 598.41186523 C-248.21027987 604.7209062 -249.93606765 610.97975141 -251.796875 617.21875 C-254.51044951 626.32193378 -256.92476281 635.49438178 -259.3125 644.6875 C-260.18852748 648.04859001 -261.0663852 651.40919844 -261.9453125 654.76953125 C-262.1574086 655.58091553 -262.3695047 656.3922998 -262.58802795 657.22827148 C-264.22253755 663.46265016 -265.94292915 669.67058432 -267.6875 675.875 C-270.13878329 684.63923582 -272.04353043 693.48880386 -273.81567383 702.41357422 C-274.00669678 703.37537598 -274.19771973 704.33717773 -274.39453125 705.328125 C-274.56057861 706.1830957 -274.72662598 707.03806641 -274.89770508 707.91894531 C-275.375 710 -275.375 710 -276.375 712 C-276.41522391 714.3329866 -276.41820247 716.66706666 -276.375 719 C-273.44230365 720.66891363 -271.29986699 721.25980261 -267.93558693 721.31605816 C-266.61184102 721.34501574 -266.61184102 721.34501574 -265.26135278 721.37455833 C-264.30238084 721.38555537 -263.34340889 721.39655241 -262.3553772 721.40788269 C-261.34281475 721.42680734 -260.3302523 721.44573199 -259.28700614 721.46523011 C-255.93442215 721.52480187 -252.58182325 721.56980926 -249.22900391 721.61401367 C-246.86845024 721.65155335 -244.50790351 721.68953221 -242.14736366 721.72793102 C-220.48269975 722.06282713 -198.81787855 722.1503291 -177.1509819 722.16866493 C-170.47747192 722.17479164 -163.80400942 722.19150402 -157.13052368 722.21000671 C-154.8095379 722.21633572 -152.4885521 722.22266142 -150.1675663 722.22898388 C-148.4299676 722.2337326 -148.4299676 722.2337326 -146.6572659 722.23857725 C-131.2205733 722.28009913 -115.7839132 722.31372908 -100.34716797 722.32592773 C-89.78647984 722.33435628 -79.22592132 722.3569794 -68.6652981 722.3952834 C-63.12859339 722.41479826 -57.59208107 722.42753007 -52.05533981 722.42244911 C-22.79253687 722.40069326 4.41386612 723.55416827 32.60913086 732.20898438 C35.24394892 733.01731791 37.88559499 733.79938632 40.52929688 734.578125 C42.25043492 735.0922964 43.97115587 735.60786653 45.69140625 736.125 C46.46021622 736.35429199 47.22902618 736.58358398 48.02113342 736.81982422 C57.36103066 739.69994792 65.17810046 742.47874466 70.625 751 C72.48995864 754.91941653 73.83399944 758.92262482 75.125 763.0625 C75.49955322 764.22483154 75.87410645 765.38716309 76.26000977 766.5847168 C82.00256247 784.9630796 86.21070163 803.90210857 88.625 823 C88.73400635 823.80945068 88.8430127 824.61890137 88.95532227 825.45288086 C89.18878832 827.39873326 89.3176534 829.35635973 89.4375 831.3125 C89.54707031 832.56675781 89.65664063 833.82101562 89.76953125 835.11328125 C89.22875383 839.15640906 86.91470287 840.88448543 83.875 843.43359375 C81.81492528 844.98706282 79.73030536 846.50840242 77.625 848 C76.60817139 848.72292236 75.59134277 849.44584473 74.54370117 850.19067383 C71.32838257 852.42153184 68.08052189 854.59761963 64.8125 856.75 C64.22718506 857.13740356 63.64187012 857.52480713 63.03881836 857.9239502 C43.27461144 870.99012375 22.7981602 882.3696737 1.625 893 C0.34012695 893.6494458 0.34012695 893.6494458 -0.97070312 894.31201172 C-51.82017844 919.85260361 -108.92666642 934.88070186 -165.375 941 C-166.14554718 941.08613556 -166.91609436 941.17227112 -167.70999146 941.26101685 C-185.06372644 943.15317515 -202.37432769 943.36029611 -219.8125 943.3125 C-221.24507643 943.31027796 -222.67765293 943.30810143 -224.11022949 943.30596924 C-244.33531503 943.26425381 -264.32793856 942.98590242 -284.375 940 C-285.79768448 939.79391546 -287.22037349 939.58786223 -288.64306641 939.38183594 C-331.47611564 933.09251683 -373.35752887 922.68411824 -413.375 906 C-414.40061035 905.57251465 -415.4262207 905.1450293 -416.48291016 904.70458984 C-455.8724597 888.12177995 -502.69520985 866.67979015 -533.375 836 C-535.85632555 814.7356171 -526.96469328 791.82780785 -514.375 775 C-510.07939704 769.62410656 -505.53851795 764.44986592 -500.984375 759.29296875 C-490.19973122 746.7171691 -483.00293325 731.8112349 -478.1328125 716.04296875 C-475.33443002 707.02454038 -471.87561495 698.68485492 -467.75 690.1875 C-461.28510941 676.716053 -455.97654935 662.86707764 -450.75 648.875 C-450.32607971 647.7405545 -449.90215942 646.60610901 -449.46539307 645.43728638 C-447.29026085 639.60950293 -445.12247521 633.77901736 -442.95800781 627.94726562 C-426.56349295 583.80427541 -409.95991275 539.62268308 -389.6171875 497.11328125 C-379.36015449 475.652171 -370.50297691 454.04428292 -364.375 431 C-364.13007813 430.14535156 -363.88515625 429.29070312 -363.6328125 428.41015625 C-359.54985333 412.0503541 -362.20328264 395.09320582 -370.625 380.62890625 C-379.63523856 367.09343627 -393.0989195 358.49920988 -408.91015625 354.875 C-415.18259481 353.69192969 -421.38658221 353.74260593 -427.75 353.8125 C-428.98226318 353.81894531 -430.21452637 353.82539063 -431.48413086 353.83203125 C-438.64668362 353.8916532 -445.78647116 354.09671942 -452.9375 354.5 C-459.49897126 354.86534702 -466.05386178 355.18930319 -472.625 355.3125 C-473.76884155 355.35697266 -473.76884155 355.35697266 -474.93579102 355.40234375 C-480.51487741 355.46164973 -484.71986758 354.10919914 -489.375 351 C-491.77381353 348.48961375 -493.75333936 346.03332889 -495.54296875 343.05859375 C-496.71391182 341.18281116 -497.81073573 339.56426427 -499.375 338 C-504.76370896 336.83772944 -508.7787269 338.84747708 -513.66015625 340.91015625 C-521.34491794 343.99511814 -528.76455424 345.26450144 -537 345.3125 C-538.04921631 345.32071777 -538.04921631 345.32071777 -539.11962891 345.32910156 C-544.11731149 345.25768851 -544.11731149 345.25768851 -546.375 343 C-546.86584159 339.71383616 -546.75474396 336.38103696 -546.75 333.0625 C-546.75056396 332.07991211 -546.75112793 331.09732422 -546.75170898 330.08496094 C-546.6308375 321.87626774 -545.32732885 314.30050049 -543.34765625 306.359375 C-542.20171073 301.60624401 -541.73456178 296.8690066 -541.375 292 C-541.31320557 291.22221191 -541.25141113 290.44442383 -541.18774414 289.64306641 C-540.4431267 278.53537225 -541.56791758 269.01694855 -544.875 258.375 C-549.45863082 243.55569124 -551.11112503 229.47952109 -544.375 215 C-543.95089844 214.06929687 -543.52679687 213.13859375 -543.08984375 212.1796875 C-536.66396091 199.32792181 -527.07161911 190.36341028 -513.4609375 185.53515625 C-506.75291378 183.38956488 -499.86506775 181.91990029 -493 180.375 C-492.25577789 180.20592133 -491.51155579 180.03684265 -490.74478149 179.86264038 C-475.68970743 176.4433322 -460.5815236 173.28380025 -445.46435547 170.15258789 C-436.49602862 168.29335069 -427.54273424 166.40385391 -418.625 164.3125 C-408.91669489 162.04500767 -399.13908816 160.15783888 -389.34643555 158.2956543 C-388.0004743 158.03962425 -386.65452704 157.7835207 -385.30859375 157.52734375 C-384.63982712 157.40006393 -383.97106049 157.27278412 -383.2820282 157.14164734 C-378.98350864 156.31936983 -374.69497938 155.45711638 -370.41015625 154.56640625 C-334.67430706 147.15224588 -298.58470287 141.51997294 -262.375 137 C-261.25818848 136.85755859 -260.14137695 136.71511719 -258.99072266 136.56835938 C-248.21727958 135.20254583 -237.43219406 134.07459037 -226.61328125 133.140625 C-207.00268999 131.44456476 -187.45965904 129.53681535 -167.9375 127 C-167.00256714 126.8803891 -166.06763428 126.7607782 -165.10437012 126.63754272 C-152.58928 125.02620344 -140.23359672 122.92699931 -127.85580444 120.48284912 C-123.9808441 119.72864973 -120.09670122 119.02805706 -116.2109375 118.33203125 C-115.50144455 118.20432343 -114.7919516 118.0766156 -114.06095886 117.94503784 C-111.22326182 117.43456305 -108.38524548 116.92590652 -105.546875 116.41918945 C-103.41371156 116.03789594 -101.28104838 115.6539014 -99.1484375 115.26953125 C-97.91528809 115.04885986 -96.68213867 114.82818848 -95.41162109 114.60083008 C-92.34741716 114.06084782 -92.34741716 114.06084782 -89.375 113 C-85.79631526 112.76518335 -82.21059592 112.81021763 -78.625 112.8125 C-77.07522461 112.8115332 -77.07522461 112.8115332 -75.49414062 112.81054688 C-68.36606516 112.85939973 -61.56673106 113.37896113 -54.53125 114.5625 C-50.22823534 115.15895748 -46.23534398 115.41744304 -41.97265625 114.4609375 C-40.02253403 112.98411494 -40.02253403 112.98411494 -39.87109375 109.7265625 C-39.83703919 108.35965964 -39.81847767 106.99231394 -39.8125 105.625 C-39.48684637 96.62257512 -37.76728502 88.79579833 -34.69140625 80.3046875 C-34.23048584 79.02609863 -34.23048584 79.02609863 -33.76025391 77.72167969 C-33.1511196 76.05275838 -32.52819173 74.38877223 -31.88818359 72.73144531 C-26.94735916 59.37742722 -26.90332372 45.00863296 -26.34594727 30.93896484 C-25.52232315 10.76552232 -25.52232315 10.76552232 -20.71875 3.4921875 C-14.21108679 -2.21580523 -8.14892653 -2.41449675 0 0 Z " fill="#FEFEFE" transform="translate(729.375,75)"/>
<path d="M0 0 C0 0.66 0 1.32 0 2 C1.216875 2.061875 2.43375 2.12375 3.6875 2.1875 C11.79271424 3.0738071 20.29471192 6.35596714 27 11 C27 11.66 27 12.32 27 13 C27.7321875 13.11859375 28.464375 13.2371875 29.21875 13.359375 C36.02053131 14.92607744 41.33223759 18.94325739 46 24 C47.65385233 25.34919532 49.321702 26.68133728 51 28 C67.27742781 41.02976794 80.84895355 61.87274119 84.5625 82.5625 C85.49790911 87.7666391 85.49790911 87.7666391 87.0300293 92.81079102 C88.07688316 96.25278749 88.25847263 99.05743753 88.265625 102.6484375 C88.26820313 103.90140625 88.27078125 105.154375 88.2734375 106.4453125 C88.26570312 107.74210937 88.25796875 109.03890625 88.25 110.375 C88.25773438 111.6640625 88.26546875 112.953125 88.2734375 114.28125 C88.2598889 120.8794175 88.00252816 126.70208617 86 133 C84.87644511 136.70112198 84.00795599 139.88066012 83.75 143.75 C83.24581626 148.56775576 80.87138829 152.21543576 78.47265625 156.34375 C77.23426021 158.57746169 76.3488208 160.58663804 75.5625 163 C72.90331877 170.63137809 67.96617849 177.61588771 62 183 C60.70090503 184.26323885 59.40998658 185.53491258 58.125 186.8125 C57.43921875 187.493125 56.7534375 188.17375 56.046875 188.875 C54.04998285 190.94810941 52.21391206 193.09929611 50.375 195.3125 C47.50612229 198.63165 45.05130735 200.2080756 41 202 C38.10312754 203.81877504 35.2455698 205.69042321 32.390625 207.57421875 C30 209 30 209 28 209 C28 209.66 28 210.32 28 211 C21.1712702 213.88258552 14.32750635 216.20844857 7.1875 218.1875 C6.27291016 218.44724609 5.35832031 218.70699219 4.41601562 218.97460938 C-20.2233223 225.90946303 -48.84176843 223.85299731 -72 213 C-73.16144531 212.47019531 -74.32289063 211.94039062 -75.51953125 211.39453125 C-95.63477896 201.73062221 -114.04323651 185.6146965 -125 166 C-125 165.01 -125 164.02 -125 163 C-125.66 163 -126.32 163 -127 163 C-127.93570516 160.68426042 -128.86382064 158.36603096 -129.78125 156.04296875 C-130.61035677 153.97285921 -131.4656294 151.9130802 -132.34375 149.86328125 C-135.40055292 142.49674164 -136.8418703 135.97836221 -137 128 C-137.66 128 -138.32 128 -139 128 C-140.89296376 112.61203656 -140.30254489 98.13666406 -137 83 C-136.7834375 81.90945313 -136.566875 80.81890625 -136.34375 79.6953125 C-134.90166528 73.08575753 -132.48855882 67.45991241 -129.3046875 61.49609375 C-127.90429942 58.97823971 -127.90429942 58.97823971 -127 56 C-126.34 56 -125.68 56 -125 56 C-124.71640625 55.26523437 -124.4328125 54.53046875 -124.140625 53.7734375 C-120.81294851 45.68216933 -115.82295971 39.38176859 -109.9375 33 C-109.03499512 32.0112085 -109.03499512 32.0112085 -108.11425781 31.00244141 C-104.92327721 27.62618372 -102.50937911 25.45891677 -98 24 C-97.690625 23.34 -97.38125 22.68 -97.0625 22 C-96 20 -96 20 -92.875 18.75 C-91.92625 18.5025 -90.9775 18.255 -90 18 C-90 17.34 -90 16.68 -90 16 C-87.7030971 14.85154855 -85.40561098 13.7044606 -83.10546875 12.5625 C-80.95177735 11.47888169 -78.80915421 10.37309176 -76.67578125 9.25 C-52.54717221 -3.2871496 -26.46672979 -4.19274927 0 0 Z " fill="#060606" transform="translate(667,214)"/>
<path d="M0 0 C165.66 0 331.32 0 502 0 C499.05008649 2.21243513 496.53029849 3.88440209 493.31640625 5.56640625 C492.40028564 6.0466626 491.48416504 6.52691895 490.5402832 7.02172852 C489.06628052 7.7844104 489.06628052 7.7844104 487.5625 8.5625 C486.01985474 9.36095337 486.01985474 9.36095337 484.44604492 10.17553711 C428.70043081 38.86781796 368.3699912 57.23876284 306 64 C305.22945282 64.08613556 304.45890564 64.17227112 303.66500854 64.26101685 C286.31127356 66.15317515 269.00067231 66.36029611 251.5625 66.3125 C250.12992357 66.31027796 248.69734707 66.30810143 247.26477051 66.30596924 C227.03968497 66.26425381 207.04706144 65.98590242 187 63 C185.57731552 62.79391546 184.15462651 62.58786223 182.73193359 62.38183594 C139.89888436 56.09251683 98.01747113 45.68411824 58 29 C56.97438965 28.57251465 55.9487793 28.1450293 54.89208984 27.70458984 C36.19088111 19.8314714 17.50865638 11.29191558 0 1 C0 0.67 0 0.34 0 0 Z " fill="#000000" transform="translate(258,952)"/>
<path d="M0 0 C0 0.66 0 1.32 0 2 C1.216875 2.061875 2.43375 2.12375 3.6875 2.1875 C11.79271424 3.0738071 20.29471192 6.35596714 27 11 C27 11.66 27 12.32 27 13 C27.7321875 13.11859375 28.464375 13.2371875 29.21875 13.359375 C36.02053131 14.92607744 41.33223759 18.94325739 46 24 C47.65385233 25.34919532 49.321702 26.68133728 51 28 C67.27742781 41.02976794 80.84895355 61.87274119 84.5625 82.5625 C85.49790911 87.7666391 85.49790911 87.7666391 87.0300293 92.81079102 C88.07688316 96.25278749 88.25847263 99.05743753 88.265625 102.6484375 C88.26820313 103.90140625 88.27078125 105.154375 88.2734375 106.4453125 C88.26570312 107.74210937 88.25796875 109.03890625 88.25 110.375 C88.25773438 111.6640625 88.26546875 112.953125 88.2734375 114.28125 C88.2598889 120.8794175 88.00252816 126.70208617 86 133 C84.87644511 136.70112198 84.00795599 139.88066012 83.75 143.75 C83.24581626 148.56775576 80.87138829 152.21543576 78.47265625 156.34375 C77.23426021 158.57746169 76.3488208 160.58663804 75.5625 163 C72.90331877 170.63137809 67.96617849 177.61588771 62 183 C60.70090503 184.26323885 59.40998658 185.53491258 58.125 186.8125 C57.43921875 187.493125 56.7534375 188.17375 56.046875 188.875 C54.04998285 190.94810941 52.21391206 193.09929611 50.375 195.3125 C47.50612229 198.63165 45.05130735 200.2080756 41 202 C38.10312754 203.81877504 35.2455698 205.69042321 32.390625 207.57421875 C30 209 30 209 28 209 C28 209.66 28 210.32 28 211 C21.1712702 213.88258552 14.32750635 216.20844857 7.1875 218.1875 C6.27291016 218.44724609 5.35832031 218.70699219 4.41601562 218.97460938 C-20.2233223 225.90946303 -48.84176843 223.85299731 -72 213 C-73.16144531 212.47019531 -74.32289063 211.94039062 -75.51953125 211.39453125 C-95.63477896 201.73062221 -114.04323651 185.6146965 -125 166 C-125 165.01 -125 164.02 -125 163 C-125.66 163 -126.32 163 -127 163 C-127.93570516 160.68426042 -128.86382064 158.36603096 -129.78125 156.04296875 C-130.61035677 153.97285921 -131.4656294 151.9130802 -132.34375 149.86328125 C-135.40055292 142.49674164 -136.8418703 135.97836221 -137 128 C-137.66 128 -138.32 128 -139 128 C-140.89296376 112.61203656 -140.30254489 98.13666406 -137 83 C-136.7834375 81.90945313 -136.566875 80.81890625 -136.34375 79.6953125 C-134.90166528 73.08575753 -132.48855882 67.45991241 -129.3046875 61.49609375 C-127.90429942 58.97823971 -127.90429942 58.97823971 -127 56 C-126.34 56 -125.68 56 -125 56 C-124.71640625 55.26523437 -124.4328125 54.53046875 -124.140625 53.7734375 C-120.81294851 45.68216933 -115.82295971 39.38176859 -109.9375 33 C-109.03499512 32.0112085 -109.03499512 32.0112085 -108.11425781 31.00244141 C-104.92327721 27.62618372 -102.50937911 25.45891677 -98 24 C-97.690625 23.34 -97.38125 22.68 -97.0625 22 C-96 20 -96 20 -92.875 18.75 C-91.92625 18.5025 -90.9775 18.255 -90 18 C-90 17.34 -90 16.68 -90 16 C-87.7030971 14.85154855 -85.40561098 13.7044606 -83.10546875 12.5625 C-80.95177735 11.47888169 -78.80915421 10.37309176 -76.67578125 9.25 C-52.54717221 -3.2871496 -26.46672979 -4.19274927 0 0 Z M-94.5546875 52.1875 C-110.55440608 70.58973223 -117.4391543 93.27996544 -116.21142578 117.42529297 C-115.65768272 124.16868129 -114.06461095 130.57360177 -112 137 C-111.79101074 137.65194336 -111.58202148 138.30388672 -111.36669922 138.97558594 C-104.1589383 160.58267146 -88.25416892 178.25350109 -68.1875 188.8125 C-44.57798159 199.95851148 -19.67212698 201.06002536 4.96875 192.6796875 C17.80846453 188.04581772 28.30442498 180.53124324 38 171 C38.69867187 170.31421875 39.39734375 169.6284375 40.1171875 168.921875 C57.13925205 151.03877217 62.82520897 127.53582134 62.3046875 103.5078125 C61.33421569 80.32075463 49.30999733 59.99726876 33 44 C22.00023832 34.44757538 7.98718287 27.84041148 -6 24 C-6.76828125 23.77570313 -7.5365625 23.55140625 -8.328125 23.3203125 C-40.16502223 15.41523257 -72.59632584 29.60962343 -94.5546875 52.1875 Z " fill="#FAFAFA" transform="translate(667,214)"/>
<path d="M0 0 C1.99936811 0.33710276 3.99920583 0.67146723 6 1 C6 1.66 6 2.32 6 3 C6.67546875 3.06058594 7.3509375 3.12117187 8.046875 3.18359375 C8.93890625 3.26738281 9.8309375 3.35117188 10.75 3.4375 C11.63171875 3.51871094 12.5134375 3.59992188 13.421875 3.68359375 C15.69350452 3.96238465 17.79851823 4.38790577 20 5 C19.01 3.68 18.02 2.36 17 1 C18.2375 1.144375 19.475 1.28875 20.75 1.4375 C31.29224149 2.5915452 41.69744416 3.14054393 52.3046875 3.17578125 C54.32569993 3.19160026 56.3466745 3.21031757 58.36766243 3.22898388 C63.2932631 3.27417758 68.21873329 3.312405 73.14453125 3.32592773 C75.93030495 3.33406853 78.71562947 3.35263552 81.50125122 3.38285828 C84.10991472 3.41091475 86.7187948 3.42393176 89.3276062 3.41999817 C100.43375723 3.57493757 100.43375723 3.57493757 105 8 C106.85180664 10.49169922 106.85180664 10.49169922 108.41015625 13.3046875 C109.0016748 14.35309814 109.59319336 15.40150879 110.20263672 16.48168945 C111.12326904 18.16137817 111.12326904 18.16137817 112.0625 19.875 C113.04449274 21.62680535 114.02651169 23.37859747 115.01092529 25.12904358 C115.67998527 26.31976998 116.34733555 27.51145861 117.01300049 28.7040863 C120.8610258 35.58536389 124.94128731 42.32851411 129.05102539 49.05615234 C129.55754639 49.90000488 130.06406738 50.74385742 130.5859375 51.61328125 C131.0298584 52.34329346 131.4737793 53.07330566 131.93115234 53.82543945 C133.10273779 56.20901907 133.58987645 58.38524727 134 61 C130.77825751 63.14782833 129.9566269 63.24649148 126.25317383 63.22705078 C125.29240433 63.22689972 124.33163483 63.22674866 123.3417511 63.22659302 C122.30729355 63.21627045 121.272836 63.20594788 120.20703125 63.1953125 C119.14586594 63.1924826 118.08470062 63.18965271 116.99137878 63.18673706 C113.59830503 63.17553184 110.20549413 63.15042647 106.8125 63.125 C104.51367568 63.11497065 102.21484724 63.10584472 99.91601562 63.09765625 C94.27725389 63.07559141 88.63864572 63.04211044 83 63 C83.40992188 64.02480469 83.81984375 65.04960937 84.2421875 66.10546875 C87.4921875 74.23046875 87.4921875 74.23046875 88.27407837 76.19245911 C88.89383477 77.73564917 89.5299645 79.27224672 90.16943359 80.80737305 C91.18879743 83.49840969 91.41792367 85.94794405 91.625 88.8125 C91.69976563 89.78832031 91.77453125 90.76414062 91.8515625 91.76953125 C91.90054688 92.50558594 91.94953125 93.24164063 92 94 C92.66 94 93.32 94 94 94 C95.3290178 101.03436344 95.28771909 108.0567941 95.3125 115.1875 C95.31642761 116.2610524 95.31642761 116.2610524 95.32043457 117.35629272 C95.32499788 128.99616389 94.33657723 139.80856389 91 151 C90.71125 151.99773437 90.4225 152.99546875 90.125 154.0234375 C81.81534196 179.32337849 64.95952728 202.10650647 43 217 C42.10152344 217.62003906 41.20304688 218.24007812 40.27734375 218.87890625 C34.53267995 222.70592688 28.79665099 225.52388337 22.3359375 227.95703125 C19.85037815 228.77058549 19.85037815 228.77058549 19 231 C16.09740189 232.3749149 14.23861295 233 11 233 C11.60275236 234.97959785 12.20728575 236.95865342 12.8125 238.9375 C13.17472656 240.12214844 13.53695312 241.30679688 13.91015625 242.52734375 C14.80396622 245.37536189 15.75505526 248.18654383 16.75 251 C18.70157362 256.9306154 18.70157362 256.9306154 18 260 C15.8125 262.375 15.8125 262.375 13 264 C10.375 264.0625 10.375 264.0625 8 263 C5.48201565 259.99778789 4.60586612 256.76728665 3.5625 253.0625 C2.06353102 247.84329196 0.26493903 243.72816305 -4.16333008 240.34936523 C-7.70282604 238.66567523 -10.68934415 238.68972273 -14.51171875 238.84765625 C-15.99876422 238.87921781 -17.48582567 238.91003338 -18.97290039 238.94018555 C-19.74393097 238.96092133 -20.51496155 238.9816571 -21.30935669 239.00302124 C-34.74008725 239.33893169 -47.08804345 239.08903051 -60 235 C-61.08410156 234.69191406 -62.16820312 234.38382813 -63.28515625 234.06640625 C-65.54025288 233.41810474 -67.77327706 232.73851113 -70 232 C-67.63959631 246.87054325 -61.92414765 259.90670931 -54.60766602 272.95629883 C-54.14158936 273.80087646 -53.6755127 274.6454541 -53.1953125 275.515625 C-52.77266113 276.26102539 -52.35000977 277.00642578 -51.91455078 277.77441406 C-50.8440597 280.37948527 -50.71799641 282.20764544 -51 285 C-52.625 287.3125 -52.625 287.3125 -55 289 C-57.859375 289.3828125 -57.859375 289.3828125 -61 289 C-80.93705252 273.66635329 -92.96081643 244.24278733 -102.74609375 222.015625 C-107.29830523 211.18220942 -107.29830523 211.18220942 -114.625 202.1875 C-117.78446899 199.31378503 -119.8973727 196.71521138 -122 193 C-123.13110979 191.34401328 -124.27725842 189.69820806 -125.4375 188.0625 C-126.63028204 186.37872938 -127.81754447 184.69103856 -129 183 C-129.66128906 182.05511719 -130.32257812 181.11023438 -131.00390625 180.13671875 C-133.13392125 176.78955233 -134.86287622 173.35380448 -136.5 169.75 C-136.80260742 169.08814697 -137.10521484 168.42629395 -137.41699219 167.74438477 C-138.28522016 165.83274777 -139.14340363 163.91686999 -140 162 C-140.40734375 161.10667969 -140.8146875 160.21335937 -141.234375 159.29296875 C-151.94500059 134.45255632 -148.9949295 105.57836586 -143 80 C-142.34 80 -141.68 80 -141 80 C-140.91290771 79.39196533 -140.82581543 78.78393066 -140.73608398 78.1574707 C-139.60499983 71.42587275 -137.4216538 66.10033184 -134.0625 60.1875 C-133.57523438 59.31875244 -133.08796875 58.45000488 -132.5859375 57.55493164 C-128.16547505 49.89511681 -123.08000847 43.39091799 -117 37 C-116.54625 36.51208984 -116.0925 36.02417969 -115.625 35.52148438 C-99.75651826 18.50343933 -99.75651826 18.50343933 -91 17 C-91 16.34 -91 15.68 -91 15 C-88.48043257 13.72660518 -85.95941351 12.45623358 -83.4375 11.1875 C-82.73302734 10.83107422 -82.02855469 10.47464844 -81.30273438 10.10742188 C-74.18758275 6.5334517 -68.01004626 3.70263564 -60 3 C-60 2.34 -60 1.68 -60 1 C-40.22485747 -2.74968843 -19.85655859 -3.88621218 0 0 Z M-70 14 C-71.20606104 14.59312275 -72.41315318 15.18415198 -73.62109375 15.7734375 C-77.09845137 17.48136111 -80.55000294 19.2374107 -84 21 C-85.99908425 22.00182941 -87.99879227 23.00241911 -90 24 C-90 24.66 -90 25.32 -90 26 C-90.94875 26.2475 -91.8975 26.495 -92.875 26.75 C-96.47798453 28.19119381 -96.45796897 28.7103338 -98 32 C-98.75667969 32.29132813 -99.51335938 32.58265625 -100.29296875 32.8828125 C-111.00819106 37.30496774 -119.97826418 51.95652835 -125 62 C-125 62.66 -125 63.32 -125 64 C-125.66 64 -126.32 64 -127 64 C-128.35758772 66.98958146 -129.68159641 69.99295619 -131 73 C-131.33515625 73.73476563 -131.6703125 74.46953125 -132.015625 75.2265625 C-134.32971611 80.57101101 -135.84923171 85.97289984 -137.1875 91.625 C-137.35443359 92.32947266 -137.52136719 93.03394531 -137.69335938 93.75976562 C-139.49110069 101.68314402 -140.16424867 109.33265026 -140.125 117.4375 C-140.12886719 118.23220703 -140.13273438 119.02691406 -140.13671875 119.84570312 C-140.12784064 125.301301 -139.68270037 130.58716137 -139 136 C-138.34 136 -137.68 136 -137 136 C-136.92523437 137.00417969 -136.85046875 138.00835937 -136.7734375 139.04296875 C-136.00095308 147.58437931 -134.44829534 154.41203148 -130.4375 162.1328125 C-128.98326756 165.03337393 -127.95559916 167.9034912 -127 171 C-126.34 171 -125.68 171 -125 171 C-124.9175 171.70769531 -124.835 172.41539062 -124.75 173.14453125 C-119.93598388 191.47289472 -96.28705185 207.70567882 -81 217 C-77.73510985 218.86956 -74.4569548 220.51763031 -71 222 C-70.20078125 222.34417969 -69.4015625 222.68835938 -68.578125 223.04296875 C-65.74899092 224.16176268 -62.90584693 225.09843315 -60 226 C-58.26556641 226.56267578 -58.26556641 226.56267578 -56.49609375 227.13671875 C-32.51362792 234.07901149 0.17288772 232.94853709 22.22412109 220.85839844 C24.1246638 219.93974183 25.94149886 219.44511194 28 219 C28 218.34 28 217.68 28 217 C28.78375 216.814375 29.5675 216.62875 30.375 216.4375 C34.651425 214.74167629 37.94201319 212.36973485 41.6328125 209.65625 C44 208 44 208 46.09765625 207.01171875 C48.41622648 205.77863931 49.64721872 204.33547893 51.3125 202.3125 C55.46721487 197.40157364 59.96968229 192.93363591 64.625 188.5 C70.50967171 182.30560872 74.15738302 175.29943961 77.5 167.5 C79 164 79 164 80.00390625 162.20703125 C82.8078661 157.18887432 83.77687034 152.52293807 84.5078125 146.83203125 C85.00402709 143.97682825 85.92457389 141.68022865 87 139 C90.26073597 122.58593441 89.46715818 103.82071415 84 88 C83.76152344 87.18789063 83.52304687 86.37578125 83.27734375 85.5390625 C77.51270792 66.4156598 66.90905219 48.32951545 51 36 C48.36929504 33.96120365 46.01064773 32.01153504 43.75 29.5625 C38.90425742 25.04714896 33.56211069 22.06287708 27 21 C26.67 20.01 26.34 19.02 26 18 C18.20501464 13.50157233 9.17776501 9.42638969 0 10 C0 9.34 0 8.68 0 8 C-22.71549983 4.40150498 -49.03031811 3.2122957 -70 14 Z " fill="#141414" transform="translate(667,206)"/>
<path d="M0 0 C1.2375 0.144375 2.475 0.28875 3.75 0.4375 C14.29224149 1.5915452 24.69744416 2.14054393 35.3046875 2.17578125 C37.32569993 2.19160026 39.3466745 2.21031757 41.36766243 2.22898388 C46.2932631 2.27417758 51.21873329 2.312405 56.14453125 2.32592773 C58.93030495 2.33406853 61.71562947 2.35263552 64.50125122 2.38285828 C67.10991472 2.41091475 69.7187948 2.42393176 72.3276062 2.41999817 C83.43375723 2.57493757 83.43375723 2.57493757 88 7 C89.85180664 9.49169922 89.85180664 9.49169922 91.41015625 12.3046875 C92.29743408 13.87730347 92.29743408 13.87730347 93.20263672 15.48168945 C93.8163916 16.60148193 94.43014648 17.72127441 95.0625 18.875 C96.04449274 20.62680535 97.02651169 22.37859747 98.01092529 24.12904358 C98.67998527 25.31976998 99.34733555 26.51145861 100.01300049 27.7040863 C103.8610258 34.58536389 107.94128731 41.32851411 112.05102539 48.05615234 C112.55754639 48.90000488 113.06406738 49.74385742 113.5859375 50.61328125 C114.25181885 51.70829956 114.25181885 51.70829956 114.93115234 52.82543945 C116.10273779 55.20901907 116.58987645 57.38524727 117 60 C113.92581515 62.04945657 113.02120509 62.28783981 109.50366211 62.48095703 C108.14095436 62.55819504 108.14095436 62.55819504 106.75071716 62.63699341 C102.58187458 62.80638881 98.41369398 62.93712499 94.24243164 63.02978516 C92.05049651 63.09293465 89.85923843 63.18832762 87.67016602 63.31689453 C69.96084571 64.34200897 69.96084571 64.34200897 65.0022583 60.4197998 C60.57853674 55.30958096 58.11470722 49.34412167 56 43 C57.29035156 42.89042969 58.58070313 42.78085938 59.91015625 42.66796875 C61.62766063 42.50841916 63.34510558 42.34822888 65.0625 42.1875 C65.91005859 42.11724609 66.75761719 42.04699219 67.63085938 41.97460938 C75.96128842 41.19344101 75.96128842 41.19344101 83 37 C83.66184176 28.88480176 80.25753582 22.64308118 76 16 C71.67654961 11.96358366 66.2438099 10.85806966 60.48535156 10.92163086 C59.15180634 10.93044533 59.15180634 10.93044533 57.7913208 10.93943787 C56.83409119 10.94782181 55.87686157 10.95620575 54.890625 10.96484375 C52.83463043 10.96112565 50.77863891 10.95519139 48.72265625 10.94726562 C45.50359684 10.93679041 42.28673889 10.93705746 39.06787109 10.97583008 C24.85378936 11.12896582 13.98426305 10.06189733 2 2 C1.34 1.34 0.68 0.68 0 0 Z " fill="#040404" transform="translate(684,207)"/>
<path d="M0 0 C13.23109811 10.19897146 22.8305543 27.12094919 25.71142578 43.58251953 C28.53104925 67.20342612 28.53104925 67.20342612 24 74 C2.86510664 66.70335219 2.86510664 66.70335219 -5 61 C-5.65097656 60.54109375 -6.30195312 60.0821875 -6.97265625 59.609375 C-12.66586813 55.20952548 -16.59143811 49.09915192 -18 42 C-19.5446176 26.03895152 -9.69533922 11.80588925 0 0 Z " fill="#FBFBFB" transform="translate(697,265)"/>
<path d="M0 0 C4.46068453 1.51436634 6.47811505 5.04618646 8.9375 8.8125 C9.59564697 9.81966064 9.59564697 9.81966064 10.26708984 10.84716797 C16.71500773 21.00150133 20.66669481 30.79344466 19 43 C17.06138703 50.81465726 12.06535448 56.72614332 5.35986328 61.06005859 C-3.39213153 66.31411483 -13.62407106 72 -24 72 C-27.3831826 50.4322109 -22.48989688 28.97210352 -10 11 C-6.8704831 7.14373447 -3.47214987 3.54899826 0 0 Z " fill="#FBFBFB" transform="translate(582,266)"/>
<path d="M0 0 C7.76422086 6.21137668 11.6690476 14.53206418 13.36328125 24.23828125 C14.01791079 31.93255017 13.77878611 39.69210614 13.6328125 47.40625 C-8.10271214 44.99119171 -26.25616809 34.32989149 -40.3671875 17.84375 C-44.13269724 13.03110956 -46.94909722 8.00795663 -49.3671875 2.40625 C-34.56033802 -4.17828577 -14.55863171 -9.80185105 0 0 Z " fill="#FBFBFB" transform="translate(615.3671875,357.59375)"/>
<path d="M0 0 C-3.96328701 8.17525086 -8.68546039 14.50101508 -15 21 C-15.62648438 21.69996094 -16.25296875 22.39992188 -16.8984375 23.12109375 C-27.66530899 34.77384708 -43.52736572 42.17216342 -59 45 C-60.32 45 -61.64 45 -63 45 C-64.01072497 14.66658864 -64.01072497 14.66658864 -54.84765625 1.94140625 C-40.60247078 -13.02657933 -16.75154976 -7.60245887 0 0 Z " fill="#FCFCFC" transform="translate(715,360)"/>
<path d="M0 0 C-7.91385812 13.22315534 -18.70898291 25.66553846 -34 30 C-42.99756207 31.23019132 -49.74959418 28.45656263 -57 23.3125 C-65.06963536 16.91133795 -71.40184149 9.62224414 -77 1 C-74.50716251 -1.90831041 -71.89076566 -3.11349581 -68.375 -4.5625 C-67.39273438 -4.97628906 -66.41046875 -5.39007813 -65.3984375 -5.81640625 C-44.51194506 -13.09066741 -19.11739656 -10.97563473 0 0 Z " fill="#FBFBFB" transform="translate(679,252)"/>
<path d="M0 0 C3.72655508 0.57663444 6.38145817 1.6434536 9.63085938 3.52709961 C15.16551794 6.3687432 19.76700238 6.67346561 25.90625 6.56640625 C27.41427185 6.57485817 27.41427185 6.57485817 28.95275879 6.58348083 C32.13565912 6.59980427 35.31715035 6.58449904 38.5 6.5625 C41.68271696 6.54582011 44.86450854 6.53692745 48.04724121 6.55223083 C50.01737811 6.56139789 51.98771383 6.55273159 53.9576416 6.52259827 C61.3023916 6.55155983 68.73032357 7.83560832 74.18359375 13.11328125 C74.59738281 13.83902344 75.01117187 14.56476563 75.4375 15.3125 C75.89253906 16.10011719 76.34757813 16.88773438 76.81640625 17.69921875 C77.20699219 18.45847656 77.59757813 19.21773437 78 20 C78.33902344 20.62519531 78.67804688 21.25039062 79.02734375 21.89453125 C81.03369917 25.99045499 81.67970825 29.49693285 81 34 C75.14031642 39.91393991 67.02076305 39.79809264 59.0859375 40.1171875 C57.05692584 40.12362881 55.02781664 40.06992471 53 40 C53.68835938 41.051875 53.68835938 41.051875 54.390625 42.125 C57.94801049 47.62549521 61.20520965 53.07504446 64 59 C63.34 59.66 62.68 60.32 62 61 C61.68289063 60.28457031 61.36578125 59.56914062 61.0390625 58.83203125 C48.9768636 33.07490487 26.98922037 16.17565787 2 4 C1.01 3.67 0.02 3.34 -1 3 C-0.67 2.01 -0.34 1.02 0 0 Z " fill="#F2F2F2" transform="translate(687,210)"/>
<path d="M0 0 C3.14584207 1.38630328 5.73736246 3.25299364 8.46777344 5.32519531 C15.09859615 10.33690743 21.7484595 14.0748189 29.48901367 17.13525391 C32.88507376 18.56638545 34.70614366 19.39525217 36.34765625 22.7734375 C36.56292969 23.83820313 36.77820313 24.90296875 37 26 C37.34417969 27.16273438 37.68835938 28.32546875 38.04296875 29.5234375 C38.22585449 30.14371826 38.40874023 30.76399902 38.59716797 31.40307617 C42.49479219 44.42255955 47.86206923 56.49791634 54.71484375 68.23046875 C56.06808304 71.14671999 56.40673979 72.83285286 56 76 C54.375 78.3125 54.375 78.3125 52 80 C49.140625 80.3828125 49.140625 80.3828125 46 80 C24.77453599 63.67543217 12.13130199 31.75285048 2 8 C1.62955566 7.14349854 1.25911133 6.28699707 0.87744141 5.40454102 C0 3 0 3 0 0 Z " fill="#FAFAFA" transform="translate(560,415)"/>
<path d="M0 0 C5.15737323 2.95452758 8.62053279 7.02454733 11.125 12.375 C12.82811555 20.72026619 11.53022704 27.0685718 7 34.1875 C2.00094646 39.18655354 -1.682268 40.70811533 -8.6875 41 C-14.75450198 40.79103323 -18.81883741 39.63820023 -23.25 35.4375 C-28.22496688 29.73935498 -29.67841614 24.85602067 -29.58984375 17.42578125 C-28.9405698 11.71664827 -26.64924225 6.72124263 -22.46484375 2.73828125 C-15.78198436 -2.21356148 -7.69531482 -3.46956391 0 0 Z " fill="#090909" transform="translate(649.25,304.5625)"/>
<path d="M0 0 C4.89292532 -0.09911652 9.78526221 -0.17158399 14.67895508 -0.21972656 C16.34247013 -0.23980207 18.00591496 -0.26706876 19.66918945 -0.30175781 C22.0647924 -0.35045766 24.45945992 -0.37300856 26.85546875 -0.390625 C27.96513252 -0.42159271 27.96513252 -0.42159271 29.09721375 -0.45318604 C32.78434926 -0.45477663 34.80188321 -0.12885201 37.92382812 1.90161133 C41.59487379 5.61194029 43.8144462 9.77335445 44.25 15 C44.1675 15.66 44.085 16.32 44 17 C36.77859397 20.38963957 28.93605482 22.60952116 21 21 C16.29113891 17.78757762 12.91634043 13.09678258 9.41308594 8.66992188 C6.72046606 5.48790391 3.41202543 3.34158608 0 1 C0 0.67 0 0.34 0 0 Z " fill="#050505" transform="translate(715,225)"/>
<path d="M0 0 C6.2417431 0.58201738 11.80115958 2.00004316 17.75 3.94140625 C18.64871826 4.22853989 19.54743652 4.51567352 20.47338867 4.81150818 C23.31775612 5.72191937 26.15887177 6.64203612 29 7.5625 C30.93859475 8.18489095 32.87739498 8.80664227 34.81640625 9.42773438 C39.5466793 10.944436 44.27406272 12.46984456 49 14 C50.15837626 18.05431692 49.83691257 20.21812119 48 24 C37.55714023 21.43427815 27.46415226 17.82366173 17.3125 14.3125 C15.53201106 13.69955011 13.75141293 13.08691732 11.97070312 12.47460938 C7.64586779 10.98672582 3.32253284 9.4945588 -1 8 C-0.67 5.36 -0.34 2.72 0 0 Z " fill="#F6F6F6" transform="translate(670,330)"/>
<path d="M0 0 C1.25664978 2.90600261 2 4.79604584 2 8 C-4.33474435 10.12003192 -10.67027105 12.23771286 -17.00634766 14.35375977 C-19.16180221 15.07392104 -21.31707696 15.79462069 -23.47216797 16.51586914 C-26.56951562 17.55236065 -29.6675043 18.58691556 -32.765625 19.62109375 C-33.72929993 19.94403915 -34.69297485 20.26698456 -35.68585205 20.59971619 C-37.03679962 21.05006981 -37.03679962 21.05006981 -38.41503906 21.50952148 C-39.20557678 21.77377426 -39.9961145 22.03802704 -40.81060791 22.31028748 C-42.85041733 22.95287777 -44.92522267 23.48130567 -47 24 C-47.99 21.03 -48.98 18.06 -50 15 C-44.39603046 12.85377352 -38.76536663 10.89903585 -33.046875 9.08203125 C-32.22423157 8.81992355 -31.40158813 8.55781586 -30.55401611 8.2877655 C-28.83000157 7.7395849 -27.10561054 7.19258703 -25.38085938 6.64672852 C-22.74165227 5.80985299 -20.10522286 4.96458461 -17.46875 4.11914062 C-15.78662251 3.5854198 -14.10433629 3.05219892 -12.421875 2.51953125 C-11.63641296 2.26645706 -10.85095093 2.01338287 -10.04168701 1.75263977 C-6.50438805 0.64250007 -3.74165887 0 0 0 Z " fill="#F6F6F6" transform="translate(610,330)"/>
<path d="M0 0 C2.95409701 1.37154504 5.44008376 2.98863724 8 5 C6.40409311 10.24075229 3.06270391 13.99049154 -0.3125 18.1875 C-7.49665216 27.25756268 -14.29867742 36.56963203 -21 46 C-23.49361571 44.79618552 -25.68143083 43.54571278 -28 42 C-26.39615258 37.15094085 -23.64644076 33.40756815 -20.6875 29.3125 C-19.90475708 28.21603149 -19.90475708 28.21603149 -19.10620117 27.09741211 C-16.20326903 23.038304 -13.27585366 18.99685917 -10.3515625 14.953125 C-9.76028564 14.13545654 -9.16900879 13.31778809 -8.55981445 12.4753418 C-7.40939862 10.88674886 -6.25694326 9.29963058 -5.10229492 7.71411133 C-4.57998291 6.99505615 -4.0576709 6.27600098 -3.51953125 5.53515625 C-3.05651611 4.899729 -2.59350098 4.26430176 -2.11645508 3.60961914 C-0.9336064 1.98579218 -0.9336064 1.98579218 0 0 Z " fill="#F7F7F7" transform="translate(684,255)"/>
<path d="M0 0 C4.13360045 3.87150622 7.30032934 8.02732062 10.5 12.6875 C11.54590434 14.19077997 12.5928171 15.69335873 13.640625 17.1953125 C14.18396484 17.97551758 14.72730469 18.75572266 15.28710938 19.55957031 C18.23326947 23.75709259 21.24166629 27.90942053 24.25 32.0625 C24.82298828 32.85422607 25.39597656 33.64595215 25.98632812 34.46166992 C27.32341372 36.30836559 28.66125827 38.15450476 30 40 C27.6875 42.5 27.6875 42.5 25 45 C24.01 45 23.02 45 22 45 C20.36523438 43.31030273 20.36523438 43.31030273 18.59375 40.93359375 C17.93705322 40.06210693 17.28035645 39.19062012 16.60375977 38.29272461 C15.56239868 36.87938843 15.56239868 36.87938843 14.5 35.4375 C13.789646 34.48689697 13.07929199 33.53629395 12.34741211 32.55688477 C10.90683031 30.62576073 9.47053214 28.69143366 8.03857422 26.75390625 C6.21767246 24.29405333 4.38081337 21.84754359 2.53515625 19.40625 C1.54356314 18.0838637 0.55262647 16.76098479 -0.4375 15.4375 C-0.89125 14.83800537 -1.345 14.23851074 -1.8125 13.62084961 C-3.87469062 10.82856917 -5.53053475 8.49111432 -6 5 C-4.02 3.35 -2.04 1.7 0 0 Z " fill="#F6F6F6" transform="translate(595,255)"/>
<path d="M0 0 C2.97 0 5.94 0 9 0 C9 16.5 9 33 9 50 C6.03 50 3.06 50 0 50 C0 33.5 0 17 0 0 Z " fill="#F6F6F6" transform="translate(636,356)"/>
<path d="M0 0 C0.95972174 2.54115002 1.91781494 5.08289457 2.875 7.625 C3.14441406 8.33785156 3.41382813 9.05070312 3.69140625 9.78515625 C8.71228054 23.13333423 8.71228054 23.13333423 8 27 C5.8125 29.375 5.8125 29.375 3 31 C0.375 31.0625 0.375 31.0625 -2 30 C-4.51798435 26.99778789 -5.39413388 23.76728665 -6.4375 20.0625 C-7.98174252 14.68565557 -9.84043574 10.60582984 -14.4375 7.1875 C-16.98556372 6.00668998 -19.22760107 5.39605699 -22 5 C-19.74248971 2.74248971 -18.99007589 2.62960852 -15.9375 2.1484375 C-15.14085937 2.01953125 -14.34421875 1.890625 -13.5234375 1.7578125 C-12.69070313 1.63148438 -11.85796875 1.50515625 -11 1.375 C-9.75089844 1.17390625 -9.75089844 1.17390625 -8.4765625 0.96875 C-2.36750638 0 -2.36750638 0 0 0 Z " fill="#F1F1F1" transform="translate(677,439)"/>
<path d="M0 0 C5.15737323 2.95452758 8.62053279 7.02454733 11.125 12.375 C12.82811555 20.72026619 11.53022704 27.0685718 7 34.1875 C2.00094646 39.18655354 -1.682268 40.70811533 -8.6875 41 C-14.75450198 40.79103323 -18.81883741 39.63820023 -23.25 35.4375 C-28.22496688 29.73935498 -29.67841614 24.85602067 -29.58984375 17.42578125 C-28.9405698 11.71664827 -26.64924225 6.72124263 -22.46484375 2.73828125 C-15.78198436 -2.21356148 -7.69531482 -3.46956391 0 0 Z M-23.125 7.5625 C-27.43880476 13.39882409 -26.82315117 19.35787212 -26.25 26.4375 C-23.85893594 31.67944814 -19.44248438 35.84125781 -14.25 38.4375 C-7.9035482 39.26324652 -3.19360172 38.6790988 2.05859375 34.93359375 C6.37617927 31.11457469 8.34614863 26.95961358 8.98828125 21.359375 C9.18824689 15.5077489 8.11541403 11.27185696 4.75 6.4375 C0.48946738 2.17696738 -3.76277617 0.70883351 -9.6875 0.0625 C-15.54888746 0.67948815 -19.39239066 3.18633733 -23.125 7.5625 Z " fill="#EDEDED" transform="translate(649.25,304.5625)"/>
<path d="M0 0 C5.00330085 2.84163131 8.92457418 6.96122253 10.75 12.4375 C10.87781786 15.11144964 10.79391871 17.75845857 10.75 20.4375 C8.49777168 18.18527168 7.98656306 16.60255344 6.9375 13.625 C4.76780167 8.07665705 2.43121036 4.66153082 -3.125 2.125 C-9.18432493 0.79194851 -13.45259098 0.90590995 -18.6796875 4.234375 C-23.23698548 7.72603614 -25.76320139 12.1194359 -26.58984375 17.75390625 C-26.84418161 19.98023358 -27.06512712 22.20443023 -27.25 24.4375 C-29.81377118 20.59184323 -29.7599662 19.02719584 -29.25 14.4375 C-26.78203197 7.37514505 -23.72710877 3.15584022 -17.25 -0.5625 C-11.56978516 -2.45590495 -5.50898331 -2.48381907 0 0 Z " fill="#F0F0F0" transform="translate(649.25,304.5625)"/>
<path d="M0 0 C8.61965254 4.87064145 15.51058737 11.81051043 21 20 C18 20 18 20 15.109375 17.33203125 C13.98206423 16.16607744 12.86256543 14.99253221 11.75 13.8125 C7.45168681 9.27651538 3.1923996 5.49893933 -2 2 C-1.34 1.34 -0.68 0.68 0 0 Z " fill="#D4D4D4" transform="translate(715,226)"/>
<path d="M0 0 C0.66 0.33 1.32 0.66 2 1 C1 3 1 3 -2.3125 4.8125 C-7.39249389 7.62315236 -10.3518506 11.42164819 -12 17 C-12.43906491 19.9927068 -12.75047267 22.98597255 -13 26 C-15.56377118 22.15434323 -15.5099662 20.58969584 -15 16 C-12.53203197 8.93764505 -9.47710877 4.71834022 -3 1 C-2.01 0.67 -1.02 0.34 0 0 Z " fill="#E7E7E7" transform="translate(635,303)"/>
<path d="M0 0 C0.33 0 0.66 0 1 0 C1.02578125 0.72445313 1.0515625 1.44890625 1.078125 2.1953125 C1.43139896 8.21702772 1.87710726 12.30448327 6 17 C7.62332967 18.38576923 9.28724465 19.72641268 11 21 C12.0173873 21.98230498 13.02596117 22.97469597 14 24 C13.34 24.33 12.68 24.66 12 25 C6.26594767 22.56967318 1.72780089 18.60978184 -1 13 C-1.62766487 10.59707405 -1.84712489 8.49696008 -2 6 C-1.67 6 -1.34 6 -1 6 C-0.67 4.02 -0.34 2.04 0 0 Z " fill="#D7D7D7" transform="translate(622,320)"/>
<path d="M0 0 C0.66 0.33 1.32 0.66 2 1 C0.07462497 3.63847689 -1.44738217 5.68635204 -4.3125 7.3125 C-7.7380197 9.46340772 -9.84710157 12.21072709 -12.3515625 15.35546875 C-14 17 -14 17 -17 17 C-12.97855893 12.20520488 -9.03428893 7.74644758 -4 4 C-3.34 4 -2.68 4 -2 4 C-1.34 2.68 -0.68 1.36 0 0 Z " fill="#AFAFAF" transform="translate(571,234)"/>
<path d="M0 0 C2.125 0.375 2.125 0.375 4 1 C4.625 2.875 4.625 2.875 5 5 C4.34 5.66 3.68 6.32 3 7 C0.875 6.625 0.875 6.625 -1 6 C-1.625 4.125 -1.625 4.125 -2 2 C-1.34 1.34 -0.68 0.68 0 0 Z " fill="#E8E8E8" transform="translate(639,334)"/>
<path d="M0 0 C2.125 0.375 2.125 0.375 4 1 C4.625 2.875 4.625 2.875 5 5 C4.34 5.66 3.68 6.32 3 7 C0.875 6.625 0.875 6.625 -1 6 C-1.625 4.125 -1.625 4.125 -2 2 C-1.34 1.34 -0.68 0.68 0 0 Z " fill="#E7E7E7" transform="translate(650,325)"/>
<path d="M0 0 C4.12751449 0.60698743 7.3321148 2.03810791 11 4 C10.67 4.99 10.34 5.98 10 7 C6.27566618 5.7874262 2.62197194 4.49140021 -1 3 C-0.67 2.01 -0.34 1.02 0 0 Z " fill="#DEDEDE" transform="translate(687,210)"/>
<path d="M0 0 C1.67542976 0.28604898 3.34385343 0.61781233 5 1 C4.67 2.65 4.34 4.3 4 6 C2.68 6 1.36 6 0 6 C-0.38218767 4.34385343 -0.71395102 2.67542976 -1 1 C-0.67 0.67 -0.34 0.34 0 0 Z " fill="#EBEBEB" transform="translate(631,311)"/>
<path d="M0 0 C1.67542976 0.28604898 3.34385343 0.61781233 5 1 C4.67 2.65 4.34 4.3 4 6 C2.35 5.67 0.7 5.34 -1 5 C-1 1 -1 1 0 0 Z " fill="#F1F1F1" transform="translate(646,311)"/>
<path d="M0 0 C4.04191465 4.49101628 6.43674441 9.58984989 9 15 C8.34 15.66 7.68 16.32 7 17 C6.59007812 16.16855469 6.18015625 15.33710938 5.7578125 14.48046875 C5.21898437 13.39378906 4.68015625 12.30710937 4.125 11.1875 C3.59132813 10.10855469 3.05765625 9.02960938 2.5078125 7.91796875 C1.02778861 4.92161735 1.02778861 4.92161735 -1 2 C-0.67 1.34 -0.34 0.68 0 0 Z " fill="#BDBDBD" transform="translate(742,254)"/>
<path d="M0 0 C1.65 0.33 3.3 0.66 5 1 C4.67 2.65 4.34 4.3 4 6 C2.35 5.67 0.7 5.34 -1 5 C-0.67 3.35 -0.34 1.7 0 0 Z " fill="#F3F3F3" transform="translate(627,326)"/>
<path d="M0 0 C0.33 0 0.66 0 1 0 C1.28571429 8.57142857 1.28571429 8.57142857 -1 12 C-1.66 12 -2.32 12 -3 12 C-2.88541307 10.56163249 -2.75790884 9.12429034 -2.625 7.6875 C-2.55539062 6.88699219 -2.48578125 6.08648437 -2.4140625 5.26171875 C-2 3 -2 3 0 0 Z " fill="#D8D8D8" transform="translate(660,320)"/>
<path d="M0 0 C2.46800047 1.15173355 4.04783565 2.04783565 6 4 C4.68 5.32 3.36 6.64 2 8 C0.74335022 5.09399739 0 3.20395416 0 0 Z " fill="#E8E8E8" transform="translate(560,415)"/>
<path d="M0 0 C1.07310858 3.27185553 0.89263102 5.42947592 0.0625 8.75 C-0.22947266 9.94882812 -0.22947266 9.94882812 -0.52734375 11.171875 C-0.68332031 11.77515625 -0.83929687 12.3784375 -1 13 C-1.66 13 -2.32 13 -3 13 C-2.52060632 8.28596212 -2.03165952 4.33420699 0 0 Z " fill="#656565" transform="translate(753,345)"/>
<path d="M0 0 C0 1.32 0 2.64 0 4 C-1.5778125 4.2165625 -1.5778125 4.2165625 -3.1875 4.4375 C-6.15460549 4.87526966 -9.06794366 5.37804866 -12 6 C-10.66144904 3.32289809 -9.27941912 3.04870906 -6.5625 1.875 C-5.75941406 1.52179688 -4.95632813 1.16859375 -4.12890625 0.8046875 C-2 0 -2 0 0 0 Z " fill="#9A9A9A" transform="translate(698,430)"/>
<path d="M0 0 C0.66 0 1.32 0 2 0 C1.67 3.96 1.34 7.92 1 12 C-1.44576827 8.33134759 -1.23607254 6.32799657 -1 2 C-0.67 1.34 -0.34 0.68 0 0 Z " fill="#F2F2F2" transform="translate(621,317)"/>
<path d="M0 0 C0.99 0.33 1.98 0.66 3 1 C1.02 2.98 -0.96 4.96 -3 7 C-3.66 6.67 -4.32 6.34 -5 6 C-3.35 4.02 -1.7 2.04 0 0 Z " fill="#D0D0D0" transform="translate(559,245)"/>
<path d="M0 0 C2.88575819 0.39803561 3.82189513 0.79009069 5.75 3.0625 C6.1625 3.701875 6.575 4.34125 7 5 C6.01 5.33 5.02 5.66 4 6 C2.62437146 4.71034824 1.29233607 3.37310707 0 2 C0 1.34 0 0.68 0 0 Z " fill="#CACACA" transform="translate(723,234)"/>
</svg>
